<svg width="20" height="20" viewBox="0 0 20 20" fill="none" xmlns="http://www.w3.org/2000/svg">
<path fill-rule="evenodd" clip-rule="evenodd" d="M20 14.6321V6.66063L11.1711 11.2412C11.1513 11.2514 11.1313 11.2611 11.1112 11.2701V19.9996L19.3866 15.5987C19.7668 15.3965 20 15.029 20 14.6321ZM8.60027 11.2416L0 6.77965V14.6325C0 15.0295 0.233188 15.397 0.613373 15.5991L8.88883 20V11.3463C8.78999 11.3243 8.69288 11.2896 8.60027 11.2416Z" fill="#ED2B46"/>
<path opacity="0.3" fill-rule="evenodd" clip-rule="evenodd" d="M0.270172 4.61364C0.375222 4.49443 0.507813 4.39369 0.662398 4.3197L9.41234 0.131854C9.77967 -0.0439512 10.2203 -0.0439512 10.5876 0.131854L19.3375 4.3197C19.4567 4.37673 19.5628 4.44967 19.6533 4.5347L10.0599 9.51182C9.99681 9.54455 9.93865 9.58199 9.88565 9.62337C9.83265 9.58199 9.77449 9.54455 9.71141 9.51182L0.270172 4.61364Z" fill="#ED2B46"/>
</svg>
