<svg width="17" height="19" viewBox="0 0 17 19" fill="none" xmlns="http://www.w3.org/2000/svg">
<path d="M0.146973 16.5715C0.146973 17.518 0.91483 18.2858 1.86126 18.2858H14.4327C15.3791 18.2858 16.147 17.518 16.147 16.5715V6.85726H0.146973V16.5715ZM11.5755 9.57155C11.5755 9.33584 11.7684 9.14298 12.0041 9.14298H13.4327C13.6684 9.14298 13.8613 9.33584 13.8613 9.57155V11.0001C13.8613 11.2358 13.6684 11.4287 13.4327 11.4287H12.0041C11.7684 11.4287 11.5755 11.2358 11.5755 11.0001V9.57155ZM11.5755 14.143C11.5755 13.9073 11.7684 13.7144 12.0041 13.7144H13.4327C13.6684 13.7144 13.8613 13.9073 13.8613 14.143V15.5715C13.8613 15.8073 13.6684 16.0001 13.4327 16.0001H12.0041C11.7684 16.0001 11.5755 15.8073 11.5755 15.5715V14.143ZM7.00412 9.57155C7.00412 9.33584 7.19697 9.14298 7.43269 9.14298H8.86126C9.09697 9.14298 9.28983 9.33584 9.28983 9.57155V11.0001C9.28983 11.2358 9.09697 11.4287 8.86126 11.4287H7.43269C7.19697 11.4287 7.00412 11.2358 7.00412 11.0001V9.57155ZM7.00412 14.143C7.00412 13.9073 7.19697 13.7144 7.43269 13.7144H8.86126C9.09697 13.7144 9.28983 13.9073 9.28983 14.143V15.5715C9.28983 15.8073 9.09697 16.0001 8.86126 16.0001H7.43269C7.19697 16.0001 7.00412 15.8073 7.00412 15.5715V14.143ZM2.43269 9.57155C2.43269 9.33584 2.62554 9.14298 2.86126 9.14298H4.28983C4.52554 9.14298 4.7184 9.33584 4.7184 9.57155V11.0001C4.7184 11.2358 4.52554 11.4287 4.28983 11.4287H2.86126C2.62554 11.4287 2.43269 11.2358 2.43269 11.0001V9.57155ZM2.43269 14.143C2.43269 13.9073 2.62554 13.7144 2.86126 13.7144H4.28983C4.52554 13.7144 4.7184 13.9073 4.7184 14.143V15.5715C4.7184 15.8073 4.52554 16.0001 4.28983 16.0001H2.86126C2.62554 16.0001 2.43269 15.8073 2.43269 15.5715V14.143ZM14.4327 2.28584H12.7184V0.571551C12.7184 0.257265 12.4613 0.00012207 12.147 0.00012207H11.0041C10.6898 0.00012207 10.4327 0.257265 10.4327 0.571551V2.28584H5.86126V0.571551C5.86126 0.257265 5.60412 0.00012207 5.28983 0.00012207H4.14697C3.83269 0.00012207 3.57554 0.257265 3.57554 0.571551V2.28584H1.86126C0.91483 2.28584 0.146973 3.05369 0.146973 4.00012V5.71441H16.147V4.00012C16.147 3.05369 15.3791 2.28584 14.4327 2.28584Z" fill="#B5B5C3"/>
</svg>
