<svg width="20" height="20" viewBox="0 0 20 20" fill="none" xmlns="http://www.w3.org/2000/svg">
<path opacity="0.3" d="M17.6246 6.44443H15.7537L15.2337 4.7111C14.6993 2.92902 13.424 1.77777 11.9843 1.77777H8.01552C6.57614 1.77777 5.30052 2.92902 4.76583 4.7111L4.24583 6.44443H2.3752C2.13114 6.44443 1.95207 6.75027 2.01145 7.06568L2.19895 8.06568C2.24051 8.28818 2.39051 8.44443 2.5627 8.44443H3.18989C2.7702 8.93318 2.49989 9.64359 2.49989 10.4444V12.4444C2.49989 13.1161 2.69239 13.7223 2.99989 14.1915V16.4444C2.99989 17.1807 3.4477 17.7778 3.99989 17.7778H4.99989C5.55208 17.7778 5.99989 17.1807 5.99989 16.4444V15.1111H13.9999V16.4444C13.9999 17.1807 14.4477 17.7778 14.9999 17.7778H15.9999C16.5521 17.7778 16.9999 17.1807 16.9999 16.4444V14.1915C17.3074 13.7228 17.4999 13.1165 17.4999 12.4444V10.4444C17.4999 9.64359 17.2296 8.93318 16.8102 8.44443H17.4374C17.6096 8.44443 17.7596 8.28818 17.8012 8.06568L17.9887 7.06568C18.0477 6.75027 17.8687 6.44443 17.6246 6.44443ZM6.6227 5.70152C6.85052 4.94235 7.40208 4.44443 8.01552 4.44443H11.9843C12.5977 4.44443 13.1493 4.94235 13.3771 5.70152L13.9999 7.77776H5.99989L6.6227 5.70152ZM4.99989 12.4361C4.39989 12.4361 3.99989 11.9044 3.99989 11.1069C3.99989 10.3094 4.39989 9.77776 4.99989 9.77776C5.59989 9.77776 6.49989 10.974 6.49989 11.7715C6.49989 12.569 5.59989 12.4361 4.99989 12.4361ZM14.9999 12.4361C14.3999 12.4361 13.4999 12.569 13.4999 11.7715C13.4999 10.974 14.3999 9.77776 14.9999 9.77776C15.5999 9.77776 15.9999 10.3094 15.9999 11.1069C15.9999 11.9044 15.5999 12.4361 14.9999 12.4361Z" fill="white"/>
<path d="M6.62281 5.70151C6.85063 4.94235 7.40219 4.44443 8.01563 4.44443H11.9844C12.5978 4.44443 13.1494 4.94235 13.3772 5.70151L14 7.77777H6L6.62281 5.70151ZM5 12.4361C4.4 12.4361 4 11.9044 4 11.1069C4 10.3094 4.4 9.77777 5 9.77777C5.6 9.77777 6.5 10.974 6.5 11.7715C6.5 12.569 5.6 12.4361 5 12.4361ZM15 12.4361C14.4 12.4361 13.5 12.569 13.5 11.7715C13.5 10.974 14.4 9.77777 15 9.77777C15.6 9.77777 16 10.3094 16 11.1069C16 11.9044 15.6 12.4361 15 12.4361Z" fill="white"/>
</svg>
