<svg width="20" height="20" viewBox="0 0 20 20" fill="none" xmlns="http://www.w3.org/2000/svg">
<g clip-path="url(#clip0_3186_491)">
<path opacity="0.3" d="M19.4041 11.1765H10.6802L16.4902 16.9864C16.7122 17.2085 17.0777 17.2265 17.306 17.0114C18.7288 15.671 19.7074 13.864 19.9946 11.8327C20.0438 11.4849 19.7552 11.1765 19.4041 11.1765ZM18.8221 8.79412C18.5192 4.40221 15.0096 0.892649 10.6177 0.589708C10.2824 0.566547 10.0001 0.849267 10.0001 1.1853V9.41177H18.2269C18.5629 9.41177 18.8453 9.12941 18.8221 8.79412ZM8.23537 11.1765V2.45258C8.23537 2.10147 7.92692 1.81287 7.57949 1.86213C3.19824 2.48125 -0.150655 6.30883 0.00522741 10.896C0.165522 15.607 4.22177 19.4702 8.93501 19.411C10.7879 19.3879 12.5001 18.7908 13.9078 17.7923C14.1982 17.5864 14.2174 17.1588 13.9655 16.907L8.23537 11.1765Z" fill="white"/>
<path d="M18.8221 8.79412C18.5192 4.40221 15.0096 0.892649 10.6177 0.589708C10.2824 0.566547 10.0001 0.849267 10.0001 1.1853V9.41177H18.2269C18.5629 9.41177 18.8453 9.12941 18.8221 8.79412Z" fill="white"/>
</g>
<defs>
<clipPath id="clip0_3186_491">
<rect width="20" height="20" fill="white"/>
</clipPath>
</defs>
</svg>
