<svg width="20" height="20" viewBox="0 0 20 20" fill="none" xmlns="http://www.w3.org/2000/svg">
<g clip-path="url(#clip0_3186_501)">
<path d="M19.0391 12.332L17.375 11.3711C17.543 10.4648 17.543 9.53516 17.375 8.62891L19.0391 7.66797C19.2305 7.5586 19.3164 7.33204 19.2539 7.1211C18.8203 5.73047 18.082 4.47266 17.1172 3.42579C16.9687 3.26563 16.7266 3.22657 16.5391 3.33594L14.875 4.29688C14.1758 3.69532 13.3711 3.23047 12.5 2.92579V1.00782C12.5 0.789068 12.3477 0.597662 12.1328 0.550787C10.6992 0.230475 9.23046 0.2461 7.86718 0.550787C7.65234 0.597662 7.5 0.789068 7.5 1.00782V2.92969C6.63281 3.23829 5.82812 3.70313 5.12499 4.30079L3.46484 3.33985C3.27343 3.23047 3.03515 3.26563 2.88671 3.42969C1.92187 4.47266 1.18359 5.73047 0.749995 7.12501C0.683589 7.33594 0.773432 7.56251 0.964839 7.67188L2.6289 8.63282C2.46093 9.53907 2.46093 10.4688 2.6289 11.375L0.964839 12.3359C0.773432 12.4453 0.687495 12.6719 0.749995 12.8828C1.18359 14.2734 1.92187 15.5313 2.88671 16.5781C3.03515 16.7383 3.27734 16.7773 3.46484 16.668L5.1289 15.707C5.82812 16.3086 6.63281 16.7734 7.5039 17.0781V19C7.5039 19.2188 7.65625 19.4102 7.87109 19.457C9.30468 19.7773 10.7734 19.7617 12.1367 19.457C12.3516 19.4102 12.5039 19.2188 12.5039 19V17.0781C13.3711 16.7695 14.1758 16.3047 14.8789 15.707L16.543 16.668C16.7344 16.7773 16.9727 16.7422 17.1211 16.5781C18.0859 15.5352 18.8242 14.2773 19.2578 12.8828C19.3164 12.668 19.2305 12.4414 19.0391 12.332ZM10 13.125C8.27734 13.125 6.875 11.7227 6.875 10C6.875 8.27735 8.27734 6.87501 10 6.87501C11.7227 6.87501 13.125 8.27735 13.125 10C13.125 11.7227 11.7227 13.125 10 13.125Z" fill="white"/>
</g>
<defs>
<clipPath id="clip0_3186_501">
<rect width="20" height="20" fill="white"/>
</clipPath>
</defs>
</svg>
