<svg width="20" height="20" viewBox="0 0 20 20" fill="none" xmlns="http://www.w3.org/2000/svg">
<g clip-path="url(#clip0_3186_517)">
<path d="M19.6285 12.5035C19.2188 12.132 18.5799 12.1563 18.1493 12.5035L14.941 15.0695C14.5486 15.3854 14.059 15.5556 13.5521 15.5556H9.44444C9.13889 15.5556 8.88889 15.3056 8.88889 15C8.88889 14.6945 9.13889 14.4445 9.44444 14.4445H12.1632C12.7153 14.4445 13.2292 14.066 13.3194 13.5208C13.434 12.8264 12.8993 12.2222 12.2222 12.2222H6.66667C5.72917 12.2222 4.82292 12.5451 4.09375 13.1354L2.47917 14.4445H0.555556C0.25 14.4445 0 14.6945 0 15V18.3333C0 18.6389 0.25 18.8889 0.555556 18.8889H12.9444C13.4479 18.8889 13.9375 18.7188 14.3333 18.4028L19.5833 14.2014C20.1111 13.7813 20.1528 12.9757 19.6285 12.5035Z" fill="white"/>
<path opacity="0.3" d="M9.55902 9.80902C9.80207 10.066 10.1979 10.066 10.4444 9.80902L14.2257 5.84374C15.3229 4.69096 15.2604 2.78124 14.0312 1.71874C12.9618 0.791655 11.368 0.958322 10.3889 1.9861L9.99999 2.39235L9.61457 1.98957C8.63541 0.958322 7.04166 0.791655 5.97221 1.71874C4.74652 2.78124 4.68055 4.69096 5.77777 5.84374L9.55902 9.80902Z" fill="white"/>
</g>
<defs>
<clipPath id="clip0_3186_517">
<rect width="20" height="20" fill="white"/>
</clipPath>
</defs>
</svg>
