<svg width="57" height="57" viewBox="0 0 57 57" fill="none" xmlns="http://www.w3.org/2000/svg">
<g clip-path="url(#clip0_1380_352)">
<rect width="57" height="57" fill="#F3F3F3"/>
<path opacity="0.3" d="M43.2961 23.5625H39.7881L38.8131 21.125C37.8111 18.6189 35.4199 17 32.7205 17H25.2791C22.5803 17 20.1885 18.6189 19.1859 21.125L18.2109 23.5625H14.7035C14.2459 23.5625 13.9101 23.9926 14.0215 24.4361L14.373 25.8424C14.451 26.1553 14.7322 26.375 15.0551 26.375H16.231C15.4441 27.0623 14.9373 28.0613 14.9373 29.1875V32C14.9373 32.9446 15.2982 33.7971 15.8748 34.4569V37.625C15.8748 38.6604 16.7144 39.5 17.7498 39.5H19.6248C20.6601 39.5 21.4998 38.6604 21.4998 37.625V35.75H36.4998V37.625C36.4998 38.6604 37.3395 39.5 38.3748 39.5H40.2498C41.2852 39.5 42.1248 38.6604 42.1248 37.625V34.4569C42.7014 33.7977 43.0623 32.9451 43.0623 32V29.1875C43.0623 28.0613 42.5555 27.0623 41.7692 26.375H42.9451C43.268 26.375 43.5492 26.1553 43.6272 25.8424L43.9787 24.4361C44.0895 23.9926 43.7537 23.5625 43.2961 23.5625ZM22.6676 22.5178C23.0947 21.4502 24.1289 20.75 25.2791 20.75H32.7205C33.8707 20.75 34.9049 21.4502 35.332 22.5178L36.4998 25.4375H21.4998L22.6676 22.5178ZM19.6248 31.9883C18.4998 31.9883 17.7498 31.2406 17.7498 30.1192C17.7498 28.9977 18.4998 28.25 19.6248 28.25C20.7498 28.25 22.4373 29.9322 22.4373 31.0537C22.4373 32.1752 20.7498 31.9883 19.6248 31.9883ZM38.3748 31.9883C37.2498 31.9883 35.5623 32.1752 35.5623 31.0537C35.5623 29.9322 37.2498 28.25 38.3748 28.25C39.4998 28.25 40.2498 28.9977 40.2498 30.1192C40.2498 31.2406 39.4998 31.9883 38.3748 31.9883Z" fill="#203972"/>
<path d="M22.6675 22.5178C23.0947 21.4502 24.1289 20.75 25.2791 20.75H32.7205C33.8707 20.75 34.9049 21.4502 35.332 22.5178L36.4998 25.4375H21.4998L22.6675 22.5178ZM19.6248 31.9883C18.4998 31.9883 17.7498 31.2406 17.7498 30.1192C17.7498 28.9977 18.4998 28.25 19.6248 28.25C20.7498 28.25 22.4373 29.9322 22.4373 31.0537C22.4373 32.1752 20.7498 31.9883 19.6248 31.9883ZM38.3748 31.9883C37.2498 31.9883 35.5623 32.1752 35.5623 31.0537C35.5623 29.9322 37.2498 28.25 38.3748 28.25C39.4998 28.25 40.2498 28.9977 40.2498 30.1192C40.2498 31.2406 39.4998 31.9883 38.3748 31.9883Z" fill="#203972"/>
</g>
<defs>
<clipPath id="clip0_1380_352">
<rect width="57" height="57" rx="10" fill="white"/>
</clipPath>
</defs>
</svg>
