<svg width="20" height="21" viewBox="0 0 20 21" fill="none" xmlns="http://www.w3.org/2000/svg">
<g clip-path="url(#clip0_3215_895)">
<path d="M18.5714 8.35714H12.1429V1.92857C12.1429 1.13973 11.5031 0.5 10.7143 0.5H9.28571C8.49687 0.5 7.85714 1.13973 7.85714 1.92857V8.35714H1.42857C0.639732 8.35714 0 8.99687 0 9.78571V11.2143C0 12.0031 0.639732 12.6429 1.42857 12.6429H7.85714V19.0714C7.85714 19.8603 8.49687 20.5 9.28571 20.5H10.7143C11.5031 20.5 12.1429 19.8603 12.1429 19.0714V12.6429H18.5714C19.3603 12.6429 20 12.0031 20 11.2143V9.78571C20 8.99687 19.3603 8.35714 18.5714 8.35714Z" fill="#ED2B46"/>
</g>
<defs>
<clipPath id="clip0_3215_895">
<rect width="20" height="20" fill="white" transform="translate(0 0.5)"/>
</clipPath>
</defs>
</svg>
