<svg width="20" height="20" viewBox="0 0 20 20" fill="none" xmlns="http://www.w3.org/2000/svg">
<g clip-path="url(#clip0_3215_201)">
<path d="M19.7266 17.2931L15.832 13.3986C15.6562 13.2228 15.418 13.1251 15.168 13.1251H14.5312C15.6094 11.7462 16.25 10.0118 16.25 8.12512C16.25 3.63684 12.6133 0.00012207 8.125 0.00012207C3.63672 0.00012207 0 3.63684 0 8.12512C0 12.6134 3.63672 16.2501 8.125 16.2501C10.0117 16.2501 11.7461 15.6095 13.125 14.5314V15.1681C13.125 15.4181 13.2227 15.6564 13.3984 15.8322L17.293 19.7267C17.6602 20.0939 18.2539 20.0939 18.6172 19.7267L19.7227 18.6212C20.0898 18.254 20.0898 17.6603 19.7266 17.2931ZM8.125 13.1251C5.36328 13.1251 3.125 10.8907 3.125 8.12512C3.125 5.3634 5.35938 3.12512 8.125 3.12512C10.8867 3.12512 13.125 5.3595 13.125 8.12512C13.125 10.8868 10.8906 13.1251 8.125 13.1251Z" fill="white"/>
</g>
<defs>
<clipPath id="clip0_3215_201">
<rect width="20" height="20" fill="white"/>
</clipPath>
</defs>
</svg>
