<svg width="20" height="20" viewBox="0 0 20 20" fill="none" xmlns="http://www.w3.org/2000/svg">
<path opacity="0.3" d="M10.0001 14H4.00011V9H2.00011V17C2.00011 17.5531 2.44698 18 3.00011 18H11.0001C11.5532 18 12.0001 17.5531 12.0001 17V9H10.0001V14ZM19.8314 6.44375L17.1657 2.44375C16.9782 2.16563 16.6657 2 16.3314 2H3.66886C3.33448 2 3.02198 2.16563 2.83761 2.44375L0.171984 6.44375C-0.271766 7.10938 0.203234 8 1.00323 8H19.0001C19.797 8 20.272 7.10938 19.8314 6.44375ZM16.0001 17.5C16.0001 17.775 16.2251 18 16.5001 18H17.5001C17.7751 18 18.0001 17.775 18.0001 17.5V9H16.0001V17.5Z" fill="white"/>
<path d="M19.8312 6.44375L17.1656 2.44375C16.9781 2.16563 16.6656 2 16.3312 2H3.66874C3.33436 2 3.02186 2.16563 2.83749 2.44375L0.171862 6.44375C-0.271888 7.10938 0.203112 8 1.00311 8H19C19.7969 8 20.2719 7.10938 19.8312 6.44375Z" fill="white"/>
</svg>
